
<svg xmlns="http://www.w3.org/2000/svg" version="1.1" xmlns:xlink="http://www.w3.org/1999/xlink" preserveAspectRatio="none" x="0px" y="0px" width="500px" height="500px" viewBox="0 0 500 500">
<defs>
<g id="Layer3_0_FILL">
<path fill="#000000" stroke="none" d="
M 0 500
L 500 500 500 0 0 0 0 500
M 9.8 9.8
L 490.3 9.8 490.3 490.3 9.8 490.3 9.8 9.8 Z"/>

<path fill="#FFFFFF" stroke="none" d="
M 490.3 9.8
L 9.8 9.8 9.8 490.3 490.3 490.3 490.3 9.8 Z"/>
</g>

<g id="____0_Layer0_0_FILL">
<path fill="#000000" stroke="none" d="
M -154.1 -60.9
Q -154.6 -60 -155.05 -59.05 -180.45 -9.4 -161.4 45.05 -155.65 63.05 -139.9 84.8 -139.85 84.9 -139.75 85 -139.6 85.2 -139.45 85.4 -137.9 87.8 -137.45 93.3 -137.05 98.8 -133.5 102.1 -129.95 105.35 -123.45 103.5 -116.95 101.65 -115.1 101.25 -113.3 100.85 -110.95 101.55 -83 109.15 -55.1 105.55 -51 105 -46.85 104.2 18.6 92 36.4 44.15 38.75 38.55 40.05 32.15 46.75 -0.65 22.2 -35.1 -2.35 -69.55 -43.75 -85.45 -45.2 -86 -46.6 -86.5 -86.25 -100.9 -119.1 -89.3 -143.2 -80.8 -153.6 -61.9
L -154.1 -60.9
M -153.3 -42.05
Q -147.05 -72.7 -115.25 -83.9 -86.45 -94.05 -52.05 -82.8 -48.45 -81.65 -44.8 -80.25 -6.1 -65.4 16.85 -33.2 39.8 -1 33.5 29.65 27.25 60.3 -4.55 71.5 -36.35 82.7 -75 67.85 -113.7 53 -136.65 20.8 -159.6 -11.4 -153.3 -42.05
M 1.15 36.35
Q 13 45.65 17.25 35.3 21.45 25 22.4 10.2 23.05 1.5 8.75 0.7
L -38.65 -3.5
Q -57.05 -5.4 -40.55 6.45
L 1.15 36.35
M -56.35 12.15
Q -59.65 -3.95 -68.9 7.4
L -92.3 36.35
Q -100 44.3 -86.3 51.25 -72.65 58.15 -54.6 63.4 -44 66.55 -47.3 53.85
L -56.35 12.15
M -42.75 8.5
Q -58.1 -4.25 -52.95 12.2
L -40.05 53.75
Q -37.1 65.95 -24.4 63.55 -11.75 61.15 1.65 54.4 9.65 50.5 -2.8 40.95
L -42.75 8.5
M -79.6 -5.65
L -125.6 -6.35
Q -139.4 -7.3 -132.75 4.9 -126.05 17.1 -113.95 31.25 -106.9 39.65 -99.15 31.25
L -72.1 4.7
Q -61.4 -5.4 -79.6 -5.65
M -64.2 -75.65
Q -74.8 -78.85 -71.55 -66.1
L -62.45 -24.4
Q -59.15 -8.3 -49.9 -19.7
L -26.5 -48.65
Q -18.9 -56.6 -32.55 -63.5 -46.2 -70.4 -64.2 -75.65
M -141.4 -22.65
Q -142.05 -13.95 -127.75 -13.15
L -80.35 -8.95
Q -61.95 -7.1 -78.45 -18.9
L -120.15 -48.8
Q -132 -58.1 -136.25 -47.75 -140.4 -37.45 -141.4 -22.65
M -94.7 -76.1
Q -107.3 -73.65 -120.75 -66.95 -128.7 -63.05 -116.3 -53.5
L -76.35 -21.05
Q -61 -8.3 -66.15 -24.7
L -79.05 -66.3
Q -82 -78.5 -94.7 -76.1
M 6.65 -6.05
Q 20.45 -5.1 13.8 -17.35 7.15 -29.5 -4.95 -43.7 -12 -52.1 -19.8 -43.65
L -46.9 -17.1
Q -57.55 -7 -39.35 -6.75
L 6.65 -6.05
M 151.9 -88.75
Q 146.6 -89.1 141.95 -91.65 141.3 -92.05 141.15 -92.1 58 -138.6 -32.25 -91.8 -30.9 -91.25 -29.5 -90.7 10.85 -73.9 34.8 -37.55 58.75 -1.2 52.2 33.4 50.95 40.15 48.65 46.05 31.3 96.55 -32.5 109.45 -36.55 110.25 -40.55 110.85 102.3 133.5 149.2 41.05 171.9 -3.75 162.3 -56.35 162.2 -56.65 162.15 -57 162.9 -62.7 166.45 -66.85 170.45 -71.6 169.25 -77.55 168.1 -83.35 162.6 -85.95 157.55 -88.35 151.9 -88.75 Z"/>
</g>

<path id="Layer1_0_1_STROKES" stroke="#000000" stroke-width="12" stroke-linejoin="miter" stroke-linecap="round" stroke-miterlimit="3" fill="none" d="
M 40.35 40.35
L 459.7 40.35 459.7 459.7 40.35 459.7 40.35 40.35 Z"/>
</defs>

<g transform="matrix( 1, 0, 0, 1, 0,0) ">
<use xlink:href="#Layer3_0_FILL"/>
</g>

<g transform="matrix( 1, 0, 0, 1, 0,0) ">
<use xlink:href="#Layer1_0_1_STROKES"/>
</g>

<g transform="matrix( 1, 0, 0, 1, 250,250) ">
<g transform="matrix( 1, 0, 0, 1, 0,0) ">
<use xlink:href="#____0_Layer0_0_FILL"/>
</g>
</g>
</svg>
