
<svg xmlns="http://www.w3.org/2000/svg" version="1.1" xmlns:xlink="http://www.w3.org/1999/xlink" preserveAspectRatio="none" x="0px" y="0px" width="500px" height="500px" viewBox="0 0 500 500">
<defs>
<g id="Layer3_0_FILL">
<path fill="#000000" stroke="none" d="
M 0 500
L 500 500 500 0 0 0 0 500
M 9.8 9.8
L 490.3 9.8 490.3 490.3 9.8 490.3 9.8 9.8 Z"/>

<path fill="#FFFFFF" stroke="none" d="
M 490.3 9.8
L 9.8 9.8 9.8 490.3 490.3 490.3 490.3 9.8 Z"/>
</g>

<g id="________0_Layer0_0_FILL">
<path fill="#000000" stroke="none" d="
M -90.95 -70.85
Q -100.95 -70.85 -108.05 -63.75 -115.15 -56.65 -115.15 -46.65 -115.15 -36.65 -108.05 -29.55 -100.95 -22.45 -90.95 -22.45 -80.95 -22.45 -73.85 -29.55 -66.75 -36.65 -66.75 -46.65 -66.75 -56.65 -73.85 -63.75 -80.95 -70.85 -90.95 -70.85
M 176.95 -25
Q 177.05 -56.9 162.35 -82.85
L 155.1 -67.2
Q 168.8 -47.5 176.95 -25
M 125.7 -3.15
Q 130.3 -25.3 130.45 -48.05
L 119.5 -46.4
Q 123.8 -24.95 125.7 -3.15
M 79.3 -58.85
Q 71.65 -41.15 72.55 -20.55 78.65 -42.6 92 -54.4
L 79.3 -58.85
M 71.25 -60.55
L 71.25 -67.3 -41.8 17.25 -55.15 -2.2 -25.9 -27.45 -25.85 -27.5 -23.7 -29.35
Q -23.95 -29.1 -24.2 -28.85 -24.6 -28.45 -25.05 -28.05
L 62.4 -94.45 62.4 -101.65 -21.7 -37.05
Q -22 -38.45 -22.7 -39.65 -22.95 -40.05 -23.2 -40.45
L -42.7 -70.8
Q -43.1 -71.6 -43.65 -72.35 -44.05 -72.85 -44.5 -73.3 -47.1 -75.9 -50.85 -75.9 -54.6 -75.9 -57.25 -73.3 -59.85 -70.65 -59.85 -66.9 -59.85 -64.35 -58.6 -62.3
L -58.2 -61.75 -58.2 -61.7
Q -58.1 -61.55 -58 -61.4
L -58 -61.35 -57.95 -61.3 -43.05 -38.05 -68.1 -23.1 -102.2 -6 -132.3 24.8
Q -134.8 27.35 -134.9 31
L -134.85 47.6 -176.95 79.05 -176.95 85.55 -134.85 54.1 -134.9 67.45
Q -134.75 70.95 -132.3 73.4 -129.65 76.05 -125.9 76.05 -122.15 76.05 -119.55 73.4 -117.25 71.15 -116.95 68.05
L -116.95 40.7 -92.85 22.65 -79.95 45.8 -149.25 97.65 -149.25 104.15 -77.35 50.4 -73.7 56.95 -168 127.5 -168 134 -71.15 61.55 -53.3 92.8 -91.6 147.65 -91.7 147.75 -91.9 148
Q -92.3 148.45 -92.6 148.95
L -92.65 149
Q -93.85 151.05 -93.85 153.6 -93.85 157.35 -91.25 159.95 -88.6 162.6 -84.85 162.6 -81.1 162.6 -78.5 159.95 -78.35 159.8 -78.15 159.65 -77.25 158.6 -76.65 157.45
L -35.8 99.2
Q -35.35 98.6 -35 98 -33.8 96 -33.8 93.5 -33.8 91.3 -34.7 89.5 -34.95 89 -35.25 88.55
L -54.35 55.7 -43.15 47.85 -6.45 82.55 -6.45 132.25
Q -6.45 132.55 -6.4 132.85 -6.15 136.05 -3.85 138.35 -1.2 141 2.55 141 6.3 141 8.9 138.35 11.55 135.75 11.55 132 11.55 131.85 11.55 131.75
L 11.55 78.75
Q 11.55 78.7 11.55 78.65 11.55 74.9 8.9 72.25 8.75 72.1 8.6 71.95
L -28.05 37.3 -31.65 32.05 61.5 -37.7 61.5 -44.2 -34.6 27.75 -38.85 21.55 71.25 -60.55
M -3.25 85.55
Q -3.55 85.3 -3.85 85 -3.95 84.9 -4 84.85
L -3.25 85.55
M -119.15 37.15
Q -119.35 37.35 -119.55 37.55 -119.95 37.95 -120.4 38.35
L -119.15 37.15
M -116.95 30.2
Q -116.9 30.7 -116.9 31.2 -116.9 31.7 -116.95 32.2
L -116.95 30.2
M 83.35 -107.4
Q 83.35 -123.2 86.95 -135.85 76.55 -127.8 75.65 -106.25 74.25 -73.25 90.85 -67.95 83.35 -87.05 83.35 -107.4
M 92.9 -135.85
Q 89.3 -123.2 89.3 -107.4 89.3 -87.05 95.25 -72 95.95 -70.15 96.75 -68.4 104.25 -52.2 114.8 -52.2 117.7 -52.2 120.35 -53.4 117.2 -62.1 116.55 -70.6 115.95 -78.1 116.5 -85.25
L 130.65 -85.25
Q 130.6 -81.15 131.05 -77.45 131.15 -76.25 131.35 -75.05 131.95 -71.25 133 -68.8 134.85 -64.25 138.15 -64.2 143.25 -64.25 148.75 -75.05 154.25 -85.9 156.9 -101.25 157.5 -104.95 157.95 -108.3 159.1 -119.2 157.8 -127.4 156.1 -138.3 151.05 -138.2 145.95 -138.3 140.4 -127.4 139.7 -126.05 139.1 -124.65 138.2 -122.6 137.4 -120.35 134.15 -112.1 132.4 -101.95
L 118.75 -101.95
Q 118.9 -103.15 119.15 -104.4 120.75 -113 123.6 -120.65 126.4 -128.35 131.45 -135.4 133.3 -138 135.25 -140.45 134.15 -143.55 132.8 -146.45 125.35 -162.6 114.8 -162.6 104.25 -162.6 96.75 -146.45 94.45 -141.45 92.9 -135.85
M 97.05 -101.75
Q 97.05 -106.75 99.2 -110.3 101.35 -113.8 104.35 -113.8 107.35 -113.8 109.5 -110.3 111.65 -106.75 111.65 -101.75 111.65 -96.75 109.5 -93.25 107.35 -89.7 104.35 -89.7 101.35 -89.7 99.2 -93.25 97.05 -96.75 97.05 -101.75
M 131.7 -97.85
Q 131.45 -96.05 131.3 -94.3 131 -91.75 130.85 -89.35
L 116.9 -89.35
Q 117.4 -93.55 118.05 -97.85
L 131.7 -97.85 Z"/>
</g>

<path id="Layer1_0_1_STROKES" stroke="#000000" stroke-width="12" stroke-linejoin="miter" stroke-linecap="round" stroke-miterlimit="3" fill="none" d="
M 40.35 40.35
L 459.7 40.35 459.7 459.7 40.35 459.7 40.35 40.35 Z"/>
</defs>

<g transform="matrix( 1, 0, 0, 1, 0,0) ">
<use xlink:href="#Layer3_0_FILL"/>
</g>

<g transform="matrix( 1, 0, 0, 1, 0,0) ">
<use xlink:href="#Layer1_0_1_STROKES"/>
</g>

<g transform="matrix( 1, 0, 0, 1, 250,250) ">
<g transform="matrix( 1, 0, 0, 1, 0,0) ">
<use xlink:href="#________0_Layer0_0_FILL"/>
</g>
</g>
</svg>
