
<svg xmlns="http://www.w3.org/2000/svg" version="1.1" xmlns:xlink="http://www.w3.org/1999/xlink" preserveAspectRatio="none" x="0px" y="0px" width="500px" height="500px" viewBox="0 0 500 500">
<defs>
<g id="Layer3_0_FILL">
<path fill="#000000" stroke="none" d="
M 0 500
L 500 500 500 0 0 0 0 500
M 9.8 9.8
L 490.3 9.8 490.3 490.3 9.8 490.3 9.8 9.8 Z"/>

<path fill="#FFFFFF" stroke="none" d="
M 490.3 9.8
L 9.8 9.8 9.8 490.3 490.3 490.3 490.3 9.8 Z"/>
</g>

<g id="___2_0_Layer3_0_FILL">
<path fill="#000000" stroke="none" d="
M 70.6 -10.55
Q 70.7 -10.65 70.85 -10.8
L 70.85 -29.7 -4 -29.7
Q -4 -31.6 -4.95 -32.6 -5.15 -31.6 -5.5 -30.5 -7 -25.8 -10.5 -19.9 -13.25 -16.1 -17.05 -0.95 -17.45 0.6 -17.85 2.3 -18.05 3.05 -18.2 3.8 -18.6 5.35 -18.95 7.05 -20.3 12.9 -21.75 19.95 -24.55 38.15 -37.15 46.5
L -23.95 44.8 -23.95 35.7 29.5 35.7
Q 30.95 29.75 42.05 23.95 54.35 16.15 62.2 3.8 63 2.55 63.75 1.25 64.4 0.15 65 -0.95 66.25 -3.35 67.4 -5.9 68.4 -8.4 70.6 -10.55
M -15.65 -23.15
Q -12.15 -29.05 -10.65 -33.75 -8 -42.25 -12.15 -46.75 -15.15 -50 -21.55 -51.15 -142.9 -70 -183.85 -12.7 -190.9 -1.85 -188.7 10.45 -175 50.35 -71.05 50.2 -63.35 50.25 -56.95 49 -31.05 43.8 -26.9 16.7 -25.45 9.65 -24.1 3.8 -23.55 1.3 -23 -0.95 -18.7 -18.95 -15.65 -23.15
M -67.2 -53.15
Q -62.75 -53.15 -59.6 -52.45 -56.45 -51.75 -56.45 -50.8 -56.45 -49.85 -59.6 -49.15 -62.75 -48.45 -67.2 -48.45 -71.65 -48.45 -74.8 -49.15 -77.95 -49.85 -77.95 -50.8 -77.95 -51.75 -74.8 -52.45 -71.65 -53.15 -67.2 -53.15
M -24.45 -33.15
L -24.45 -18.1
Q -43.6 -22.1 -43.85 -27.85 -44.15 -34.5 -24.45 -33.15
M -46.3 36.25
Q -60.35 29.8 -60.15 24.4 -59.8 16.15 -40.35 21.15
L -46.3 36.25
M 146.5 -31.85
Q 146.5 -33.85 144.5 -33.85
L 132 -33.85
Q 130 -33.85 130 -31.85
L 130 -9.15
Q 131.8 -7.45 133.6 -5.85 139.85 -0.25 145.35 3.9 145.9 4.3 146.5 4.75 146.5 4.5 146.5 4.25
L 146.5 -31.85
M 153.75 -33.85
Q 151.75 -33.85 151.75 -31.85
L 151.75 4.25
Q 151.75 6.25 153.75 6.25 155.8 6.2 158.6 2.25
L 158.55 -30.4
Q 155.35 -33.8 153.75 -33.85
M 71.3 -2.8
Q 70.9 -1.85 70.5 -0.95 69.4 1.5 68.1 3.8 60.85 16.85 48.85 24.8 38.95 30.15 37.7 35.7 36.25 43.3 43.6 46.7 63.5 55.8 97.5 52.8
L 96.75 57.85
Q 96.15 61.6 98.2 62.2 100.45 62.6 101.25 60.05
L 103.35 52.25
Q 103.65 52.2 103.95 52.15
L 123.2 76.35 124.75 80.2 125.95 79.75 127.3 81.45 132 77.75 131.8 77.55 171 62.65 167.6 67.3 174.35 65.65 183.7 52.1 181.4 43.05
Q 179.45 40.4 178.85 44.2
L 180.1 49.95 174.8 57.35 127.6 72.8 108.8 51.55
Q 119.75 50.05 132 47.45 169.85 39.3 165.45 25.05 163.25 20.55 157.05 16.6
L 166.65 12.9 169.45 5.15
Q 169.65 0.75 166.75 4.1
L 164.45 9.45 152.3 13.95
Q 152.2 13.9 152.05 13.85 146.85 11.25 140.45 6.25 135.55 2.45 130 -2.75 128.15 -4.5 126.25 -6.35 125.95 -6.65 125.6 -6.95 110.4 -21.25 88.9 -14.85 78.7 -11.75 74.15 -7.1 72.2 -5.1 71.3 -2.8
M 74.15 -30.65
L 74.15 -13.35
Q 79.1 -16.6 87.25 -18.95 109.4 -25.3 125.6 -12.9
L 125.6 -31.15 108.2 -44.25 106.75 -44.25 106.75 -47.15 105.15 -47.15 129.85 -75.95 174.4 -71.25 180.7 -64.9 180.7 -58.15
Q 181.35 -54.9 183.15 -57.3
L 183.15 -67.8 171.8 -80.4 165.3 -80.4 169.95 -75.75 134.05 -80.9 134.55 -81.5 129.95 -85.65 127 -81.9 122.85 -82.5 122.85 -76.7 103.65 -52.6 101.75 -61.5
Q 101.25 -64.15 98.45 -63.85 96.25 -63.35 97 -59.4
L 99.35 -47.15 97.1 -47.15 97.1 -44.25 91.15 -44.25 74.15 -30.65 Z"/>
</g>

<g id="___2_0_Layer2_0_FILL">
<path fill="#000000" stroke="none" d="
M 105.2 -62
L 105.1 -62.1
Q 105.1 -62.15 105.05 -62.15 104.8 -62.35 104.5 -62.4 104.4 -62.4 104.35 -62.4
L 101.5 -62.4
Q 101.65 -62 101.75 -61.5
L 102 -60.4 102.25 -60.4 102.05 -60.15 102.55 -57.7 104.4 -59.85 107.05 -56.85 108.3 -58.4 105.2 -61.95 105.2 -62
M 91.75 -62.4
L 91.55 -62.35
Q 91.25 -62.35 91.05 -62.1 90.75 -61.85 90.75 -61.4
L 90.75 -43.9 91.15 -44.25 92.75 -44.25 92.75 -52.2 95.2 -50.15 95.2 -44.25 97.1 -44.25 97.1 -47.15 97.2 -47.15 97.2 -55.5 97.75 -55.5 97.4 -57.5 96.9 -57.5 94.1 -60.4 96.85 -60.4
Q 96.75 -61.6 96.95 -62.4
L 91.75 -62.4
M 92.75 -58.9
L 95.2 -56.35 95.2 -52.8 92.75 -54.85 92.75 -58.9
M 91.4 60.55
Q 91.7 60.85 92.1 60.85
L 96.85 60.85
Q 96.55 60.05 96.65 58.85
L 93.1 58.85 93.1 54.7 94.9 53.05
Q 92.95 53.15 91.1 53.3
L 91.1 59.85
Q 91.1 60.25 91.4 60.55
M 107.45 56.55
L 106.15 54.9 103.55 58.85 101.6 58.85 101.25 60.05
Q 101.1 60.5 100.95 60.85
L 104.05 60.85
Q 104.3 60.85 104.55 60.75 104.75 60.6 104.9 60.4
L 107.45 56.55 Z"/>
</g>

<g id="___2_0_Layer1_0_FILL">
<path fill="#000000" stroke="none" d="
M 38 41.3
L 38.05 41.3
Q 37.5 39.9 37.5 38.3
L 37.45 38.3
Q 18.0888671875 38.24765625 6.3 35.7
L -3.7 35.7
Q -3.55 35.85 -3.3 35.95 9.444140625 41.24765625 38 41.3
M -27 35.65
L -25.55 33
Q -28.3125 31.9416015625 -31.35 30.9 -32.03515625 32.2982421875 -32.85 33.55 -29.7732421875 34.584765625 -27 35.65
M 101 60.7
L 100.95 60.7
Q 100.1302734375 62.546484375 98.2 62.2 98.13125 62.165625 98.05 62.15 98.03125 62.15 98 62.15 97.95 65.1 96.6 66.55 94.5 68.25 89.75 67.15 76.2 64.1 69.75 67.4 69.7 67.45 69.65 67.5 63.85 71 56.9 71.05 49.6 71.1 36.85 68.55 24 65.95 13.9 61.8 4.3 57.8 2.4 53.9
L 2.35 53.9
Q 0.25 49.25 -5.5 43.8 -5.55 43.75 -5.6 43.75 -9.7880859375 40.3837890625 -19.65 35.7
L -23.95 35.7 -23.95 36.9
Q -13.0169921875 41.686328125 -7.5 46.1 -2.3 51 -0.35 55.15 1.65 59.95 12.75 64.55 23.1 68.85 36.25 71.5 49.4 74.1 56.9 74.05 64.5939453125 74.000390625 71.1 70.1 71.145703125 70.0759765625 71.15 70.05 76.9859375 67.3197265625 89.1 70.1
L 89.05 70.05
Q 95.75 71.6 98.65 68.7 101.35 66.35 101 60.7
M -17.3 -20.15
Q -14.445703125 -19.1708984375 -11.6 -18.35
L -9.9 -21
Q -12.9099609375 -21.835546875 -15.9 -22.85 -16.547265625 -21.8267578125 -17.3 -20.15
M 61.55 -45.7
Q 61.562890625 -45.647265625 61.55 -45.65 55.1994140625 -36.1083984375 48.55 -29.7
L 52.8 -29.7
Q 58.538671875 -35.716015625 64.05 -44
L 64 -43.95
Q 81.051171875 -67.65234375 91.45 -68.95
L 91.5 -68.95
Q 95.4380859375 -68.55390625 97.35 -63.2 97.5544921875 -63.446484375 97.8 -63.6 98.1375 -63.725 98.45 -63.85 98.490625 -63.854296875 98.5 -63.85 99.25 -63.8 99.95 -63.75 100.1919921875 -63.6904296875 100.35 -63.6 97.7009765625 -71.88046875 91.45 -71.95 91.353125 -71.956640625 91.25 -71.95 79.7826171875 -71.055859375 61.55 -45.7 Z"/>

<path fill="#FFFFFF" stroke="none" d="
M -32.85 33.55
Q -32.03515625 32.2982421875 -31.35 30.9 -36.694140625 29.13515625 -42.85 27.5
L -43.95 30.3
Q -38.0224609375 31.8681640625 -32.85 33.55
M -25.55 33
L -27 35.65 -26.95 35.65
Q -25.401953125 36.2892578125 -23.95 36.9
L -23.95 35.7 -19.65 35.7
Q -22.3791015625 34.40078125 -25.55 33
M -24 -26
Q -24.224609375 -26.073046875 -24.45 -26.1
L -24.45 -22.9
Q -20.9005859375 -21.39921875 -17.3 -20.15 -16.547265625 -21.8267578125 -15.9 -22.85 -19.980078125 -24.241796875 -24 -26
M 37.05 -21.05
Q 31.5431640625 -18.0189453125 25.8 -17 10.3685546875 -16.3724609375 -4 -19.55 -6.97109375 -20.177734375 -9.9 -21
L -11.6 -18.35
Q -7.823828125 -17.2673828125 -4 -16.45 10.4650390625 -13.367578125 26 -14 26.09609375 -14.0064453125 26.2 -14.05 34.7298828125 -15.4259765625 42.85 -21.05 47.903125 -24.5546875 52.8 -29.7
L 48.55 -29.7
Q 42.9287109375 -24.2521484375 37.05 -21.05 Z"/>
</g>

<path id="Layer1_0_1_STROKES" stroke="#000000" stroke-width="12" stroke-linejoin="miter" stroke-linecap="round" stroke-miterlimit="3" fill="none" d="
M 40.35 40.35
L 459.7 40.35 459.7 459.7 40.35 459.7 40.35 40.35 Z"/>
</defs>

<g transform="matrix( 1, 0, 0, 1, 0,0) ">
<use xlink:href="#Layer3_0_FILL"/>
</g>

<g transform="matrix( 1, 0, 0, 1, 0,0) ">
<use xlink:href="#Layer1_0_1_STROKES"/>
</g>

<g transform="matrix( 0.8956756591796875, -0.710174560546875, 0.710174560546875, 0.8956756591796875, 240.1,260.95) ">
<g transform="matrix( 1, 0, 0, 1, 0,0) ">
<use xlink:href="#___2_0_Layer3_0_FILL"/>
</g>

<g transform="matrix( 1, 0, 0, 1, 0,0) ">
<use xlink:href="#___2_0_Layer2_0_FILL"/>
</g>

<g transform="matrix( 1, 0, 0, 1, 0,0) ">
<use xlink:href="#___2_0_Layer1_0_FILL"/>
</g>
</g>
</svg>
