
<svg xmlns="http://www.w3.org/2000/svg" version="1.1" xmlns:xlink="http://www.w3.org/1999/xlink" preserveAspectRatio="none" x="0px" y="0px" width="500px" height="500px" viewBox="0 0 500 500">
<defs>
<g id="Layer3_0_FILL">
<path fill="#000000" stroke="none" d="
M 0 500
L 500 500 500 0 0 0 0 500
M 9.8 9.8
L 490.3 9.8 490.3 490.3 9.8 490.3 9.8 9.8 Z"/>

<path fill="#FFFFFF" stroke="none" d="
M 490.3 9.8
L 9.8 9.8 9.8 490.3 490.3 490.3 490.3 9.8 Z"/>
</g>

<g id="_____0_Layer0_0_FILL">
<path fill="#000000" stroke="none" d="
M -33.6 59.1
L -33.6 94.55 139.35 13.15 139.35 -22.3 -33.6 59.1
M -12.6 -119.9
L -27.95 -141.15 -27.95 -150.2 -37.55 -142.4 -21.45 -120.4 -42.2 -101.65 -37.4 -97.05 -12.6 -119.9
M 139.35 -42.65
L 139.35 -78.1 -33.6 3.5 -33.6 38.75 139.35 -42.65
M 139.2 -96.9
Q 138.1 -97.6 136.8 -97.4
L -9.5 -74
Q -10.3 -73.95 -10.95 -73.75
L -19.75 -72.35
Q -19.9 -73.65 -20.1 -75.4 -20.8 -81.4 -31.25 -90.15 -41.7 -98.95 -53.35 -81.75 -55.4 -85.2 -50.35 -92 -45.35 -98.8 -57.7 -100.3 -70.1 -101.85 -79.25 -92.05 -88.4 -82.3 -88.4 -69.85 -88.4 -65.5 -87.15 -61.6
L -100.05 -59.5 -102.65 -66.35 -92.45 -83.2
Q -91.45 -84.2 -91.45 -85.6 -91.45 -87 -92.45 -88 -93.45 -89 -94.85 -89 -96.2 -89 -97.15 -88.1
L -112.6 -70.8
Q -112.8 -70.6 -113 -70.35 -114.25 -68.85 -114.25 -66.85 -114.25 -65.45 -113.65 -64.3 -113.5 -64.05 -113.35 -63.8
L -109.8 -57.95 -137.45 -53.55
Q -137.5 -53.55 -137.55 -53.5
L -137.85 -53.5
Q -138.95 -53.35 -139.75 -52.5 -140.65 -51.65 -140.75 -50.45
L -140.8 -50.05 -140.8 116.25
Q -140.8 117.25 -140.3 118.1 -120.2 152.1 -33.6 150.1
L 139.35 69.65 139.35 33.75 -33.6 115.15 -33.6 143.1 -33.65 143.1
Q -114 144.95 -133.8 115.2
L -133.8 -36.8
Q -111.2 -8.85 -35.85 -11.05 -35.15 -11.1 -34.5 -11.35
L 138.8 -90.75
Q 140 -91.3 140.55 -92.5 141.1 -93.75 140.7 -94.95 140.3 -96.2 139.2 -96.9
M 3.6 -56.65
L 3.65 -56.65 3.65 -56.6 -14.65 -39.75
Q -16.95 -38.25 -17.05 -36.9 -17.25 -35.5 -15.2 -35.1 -13.15 -34.65 -10.4 -35.45 -7.9 -36.15 -6.05 -37.45
L 15.7 -54.85
Q 15.95 -55 16.1 -55.2 16.95 -55.9 17.25 -56.65 17.4 -57 17.4 -57.3 17.4 -58 16.75 -58.55 16.6 -58.7 16.45 -58.75
L 2.65 -68.85 112.65 -86.45 -36.7 -18
Q -114.95 -15.85 -132.15 -47.3
L -105.85 -51.5 -100.35 -42.45
Q -99.45 -41.7 -98.25 -41.7 -96.85 -41.7 -95.85 -42.7 -94.85 -43.7 -94.85 -45.1 -94.85 -45.8 -95.1 -46.4
L -97.55 -52.85 -84 -55
Q -81.75 -51.6 -78.3 -48.6 -68.2 -39.8 -53.9 -39.8 -39.6 -39.8 -29.5 -48.6 -21.3 -55.75 -19.75 -65.25
L -8.55 -67.05 3.6 -56.65
M -82.5 -46.05
Q -83.7 -45.95 -84.5 -45.3 -85.6 -44.4 -85.65 -43.2
L -85.7 -43
Q -85.7 -42.8 -85.65 -42.75 -85.7 -42.25 -85.7 -42 -85.65 -40.65 -84.9 -39.85
L -69.5 -20.95
Q -69.4 -20.7 -69.2 -20.55 -68.05 -19.1 -66.3 -19 -66.3 -18.95 -66.25 -18.95
L -66.2 -18.95
Q -66.15 -18.9 -66 -19.05 -65.75 -18.95 -65.4 -19.05 -65.35 -18.95 -65.2 -19.05 -64.7 -19 -64.1 -19.45 -63.95 -19.5 -63.65 -19.65
L -46 -29.8
Q -45.55 -30.35 -45.25 -31.4 -45.3 -31.45 -45.2 -31.7 -45.2 -31.9 -45.2 -32.2 -45.25 -33.15 -45.6 -34.05 -46.25 -35.1 -47.25 -35.35 -47.8 -35.4 -48.2 -35.3
L -64.85 -30.5 -79.6 -44.25
Q -80.65 -45.55 -82 -46 -82.35 -45.9 -82.5 -46.05 Z"/>
</g>

<path id="Layer1_0_1_STROKES" stroke="#000000" stroke-width="12" stroke-linejoin="miter" stroke-linecap="round" stroke-miterlimit="3" fill="none" d="
M 40.35 40.35
L 459.7 40.35 459.7 459.7 40.35 459.7 40.35 40.35 Z"/>
</defs>

<g transform="matrix( 1, 0, 0, 1, 0,0) ">
<use xlink:href="#Layer3_0_FILL"/>
</g>

<g transform="matrix( 1, 0, 0, 1, 0,0) ">
<use xlink:href="#Layer1_0_1_STROKES"/>
</g>

<g transform="matrix( 1, 0, 0, 1, 250,250) ">
<g transform="matrix( 1, 0, 0, 1, 0,0) ">
<use xlink:href="#_____0_Layer0_0_FILL"/>
</g>
</g>
</svg>
